<svg version="1.1" viewBox="0.0 0.0 340.48556430446195 329.93700787401576" fill="none" stroke="none" stroke-linecap="square" stroke-miterlimit="10" xmlns:xlink="http://www.w3.org/1999/xlink" xmlns="http://www.w3.org/2000/svg"><clipPath id="p.0"><path d="m0 0l340.48557 0l0 329.937l-340.48557 0l0 -329.937z" clip-rule="nonzero"/></clipPath><g clip-path="url(#p.0)"><path fill="#000000" fill-opacity="0.0" d="m0 0l340.48557 0l0 329.937l-340.48557 0z" fill-rule="evenodd"/><path fill="#cccccc" d="m6.3779526 164.3937l0 0c0 -90.79214 74.4547 -164.3937 166.29922 -164.3937l0 0c44.105286 0 86.40416 17.320002 117.59129 48.1498c31.187164 30.8298 48.707916 72.64398 48.707916 116.24391l0 0c0 90.79213 -74.45468 164.3937 -166.29921 164.3937l0 0c-91.84452 0 -166.29922 -73.60158 -166.29922 -164.3937z" fill-rule="evenodd"/><path stroke="#d9d9d9" stroke-width="1.0" stroke-linejoin="round" stroke-linecap="butt" d="m6.3779526 164.3937l0 0c0 -90.79214 74.4547 -164.3937 166.29922 -164.3937l0 0c44.105286 0 86.40416 17.320002 117.59129 48.1498c31.187164 30.8298 48.707916 72.64398 48.707916 116.24391l0 0c0 90.79213 -74.45468 164.3937 -166.29921 164.3937l0 0c-91.84452 0 -166.29922 -73.60158 -166.29922 -164.3937z" fill-rule="evenodd"/><path fill="#000000" fill-opacity="0.0" d="m0 24.850393l345.35434 0l0 188.59843l-345.35434 0z" fill-rule="evenodd"/><path fill="#14539f" d="m43.904434 230.61913q-2.265625 -2.265625 -2.921875 -4.296875q-0.640625 -2.046875 -3.671875 -3.671875q-0.625 -4.734375 -1.359375 -8.765625q-0.71875 -4.03125 -1.46875 -8.375q-0.734375 -4.359375 -1.0625 -8.921875q-0.328125 -4.5625 0.375 -8.59375q0.546875 -2.421875 1.609375 -4.3125q1.078125 -1.90625 1.921875 -3.3125q0.84375 -1.421875 1.15625 -2.453125q0.328125 -1.03125 -0.703125 -5.296875q3.765625 0.765625 3.671875 -1.53125q-0.078125 -2.296875 2.734375 -0.015625q-0.453125 -3.578125 1.25 -7.640625q1.71875 -4.078125 3.625 -7.875q1.90625 -3.8125 3.828125 -7.578125q1.9375 -3.765625 2.8125 -6.296875q-2.5 -2.359375 -4.265625 -6.6875q-1.75 -4.328125 -2.625 -8.499992q-0.875 -4.1875 -1.296875 -8.171875q-0.40625 -4.0 -2.015625 -9.375q3.734375 -5.59375 7.71875 -8.28125q3.984375 -2.703125 8.5625 -4.375q4.59375 -1.6875 9.703125 -2.640625q5.109375 -0.96875 10.546875 -2.171875q10.0 -3.125 18.046875 -4.90625q8.046875 -1.796875 15.625 -2.953125q7.59375 -1.171875 15.6875 -2.109375q8.109375 -0.9375 21.40625 -3.28125q-1.328125 3.46875 -1.140625 2.265625q0.1875 -1.203125 3.21875 -1.203125q0.015625 2.390625 -0.53125 4.15625q-2.703125 0.328125 -2.8125 -0.1875q-0.09375 -0.515625 -0.09375 -4.59375q4.21875 0 5.234375 0.296875q1.03125 0.296875 0.875 1.03125q-0.15625 0.734375 -0.5 1.125q-0.34375 0.390625 1.265625 0.046875q5.03125 2.09375 8.53125 4.59375q3.515625 2.484375 9.765625 5.203125q0.453125 4.171875 0.3125 5.34375q-0.140625 1.15625 -0.328125 1.78125q-0.171875 0.625 -0.171875 1.125q0 0.5 0.65625 3.09375q-4.375 7.390625 -9.125 10.875q-4.75 3.46875 -9.921875 5.265625q-5.15625 1.78125 -10.609375 2.640625q-5.453125 0.859375 -10.875 1.78125q-5.40625 0.921875 -10.71875 2.5q-5.3125 1.5625 -11.734375 5.5156174q-2.5 -0.9375 -3.328125 -0.859375q-0.8125 0.0625 -2.15625 0.4375q-1.34375 0.375 -3.484375 0.875q-2.125 0.5 -3.71875 0.234375q-1.03125 0.921875 -3.59375 1.65625q-2.5625 0.71875 -2.9375 -0.546875q1.59375 0.3125 1.484375 2.671875q-0.109375 2.359375 -0.8125 1.890625q6.734375 0.15625 17.234375 -0.765625q10.515625 -0.9375 23.671875 -1.46875q1.09375 5.59375 0.140625 5.984375q-0.953125 0.375 -1.53125 -0.671875q2.125 -0.234375 3.890625 1.765625q1.78125 2.0 3.375 3.59375q1.59375 1.59375 2.828125 2.359375q1.25 0.75 4.90625 0.453125q2.265625 4.515625 2.8125 7.53125q0.546875 3.0 -1.25 7.34375q-4.984375 3.25 -9.0 6.109375q-4.015625 2.84375 -8.53125 5.265625q-4.515625 2.421875 -9.9375 4.015625q-5.421875 1.578125 -11.734375 1.34375q-0.984375 0 -2.296875 0q-1.296875 0 -1.4375 -1.703125q-1.1875 2.0 -4.671875 1.6875q-3.46875 -0.328125 -6.1875 0.890625q-3.625 -1.28125 -7.484375 -1.28125q-3.859375 0 -4.921875 -0.375q-2.203125 3.1875 -5.4375 8.953125q-3.21875 5.75 -4.1875 8.3125q4.15625 0.59375 9.546875 0.40625q5.40625 -0.203125 10.328125 -0.8125q4.9375 -0.609375 10.375 -1.25q5.4375 -0.640625 12.59375 -0.453125q4.953125 -2.375 11.828125 -3.328125q6.890625 -0.953125 13.4375 -3.0625q4.03125 1.21875 5.828125 3.40625q1.8125 2.1875 3.078125 3.84375q1.265625 1.640625 1.984375 2.265625q0.734375 0.625 3.15625 0.1875q2.984375 2.9375 3.390625 4.859375q0.421875 1.921875 0.625 2.765625q0.203125 0.828125 -0.046875 0.671875q-0.234375 -0.15625 5.8125 -1.0625q-6.9375 14.21875 -12.296875 19.015625q-5.359375 4.78125 -11.96875 7.359375q-6.59375 2.578125 -14.359375 3.75q-7.75 1.15625 -17.078125 2.828125q-3.140625 0.5625 -4.859375 0q-1.703125 -0.578125 -2.515625 -0.578125q-5.640625 1.015625 -13.828125 2.0625q-8.171875 1.0625 -16.609375 0.84375q-8.4375 -0.21875 -16.546875 -2.234375q-8.09375 -2.03125 -13.765625 -7.453125zm133.89778 -12.4375q-2.015625 3.234375 -3.375 0.359375q-1.34375 -2.875 -5.484375 -9.46875l6.015625 1.640625q-2.578125 -2.6875 -1.765625 -7.015625q0.8125 -4.34375 1.859375 -8.0q1.046875 -3.671875 1.65625 -6.5625q0.625 -2.90625 -4.015625 -14.78125q7.203125 6.90625 6.359375 6.046875q-0.828125 -0.875 -0.59375 -2.234375q0.25 -1.375 0.15625 -3.078125q-0.09375 -1.703125 -0.421875 -3.71875q2.953125 -7.0625 4.46875 -13.765625q1.53125 -6.703125 2.78125 -13.484375q1.265625 -6.796875 2.875 -13.328125q1.609375 -6.5468674 4.96875 -14.140617q5.5625 -0.765625 9.71875 0.703125q4.15625 1.46875 3.46875 3.28125q3.546875 -4.71875 8.421875 -11.625q4.875 -6.90625 10.125 -13.84375q5.25 -6.953125 12.234375 -12.59375q7.0 -5.65625 18.8125 -6.953125q5.984375 4.25 12.5 8.484375q6.515625 4.234375 10.4375 10.25q1.15625 0.703125 2.71875 1.859375q1.5625 1.15625 4.6875 3.109375l0 3.515625q2.265625 2.09375 4.421875 6.078125q2.15625 3.984375 3.765625 8.171875q1.609375 4.171875 3.03125 8.25q1.4375 4.0624924 3.859375 8.640617q-0.640625 1.921875 -0.609375 2.3125q0.046875 0.390625 0.34375 1.28125q0.296875 0.875 0.546875 2.296875q0.265625 1.40625 0.265625 3.5q-0.921875 12.328125 -7.90625 19.765625q-6.96875 7.421875 -16.4375 11.890625q-9.453125 4.46875 -19.703125 7.5q-10.234375 3.015625 -18.4375 4.25q-0.421875 -0.828125 2.421875 -2.078125q2.84375 -1.25 -0.25 2.609375q6.0625 1.65625 9.453125 3.921875q3.390625 2.265625 6.1875 3.71875q2.796875 1.4375 6.234375 2.421875q3.4375 0.984375 9.8125 2.40625q6.5 1.484375 10.09375 2.421875q3.609375 0.921875 6.421875 1.421875q2.828125 0.484375 6.09375 0.90625q3.28125 0.40625 10.03125 1.171875q3.546875 3.515625 5.21875 7.09375q1.671875 3.5625 2.375 7.140625q0.71875 3.578125 0.3125 7.171875q-0.390625 3.578125 -3.265625 4.265625q-0.8125 -0.6875 -0.1875 -1.921875q0.640625 -1.234375 9.703125 0.546875q-7.234375 5.203125 -8.125 6.453125q-0.875 1.234375 -2.03125 2.828125q-1.140625 1.59375 -3.015625 3.328125q-1.875 1.734375 -4.609375 2.03125q-8.046875 3.109375 -20.328125 0.265625q-12.265625 -2.84375 -30.59375 -9.796875q-9.109375 -3.390625 -14.890625 -6.15625q-5.765625 -2.78125 -10.109375 -5.5q-4.34375 -2.734375 -8.0 -5.84375q-3.65625 -3.109375 -6.328125 -8.5q0.609375 -0.265625 1.515625 1.203125q0.90625 1.453125 -1.71875 -0.03125q1.234375 8.421875 -1.125 14.046875q-2.359375 5.609375 -8.03125 12.96875q-3.53125 -0.65625 -4.203125 0.078125q-0.65625 0.734375 -3.234375 2.34375q-3.796875 0.765625 -5.5 -0.078125q-1.6875 -0.84375 -2.5625 -1.5q-0.875 -0.671875 -1.390625 -0.96875q-0.5 -0.3125 -4.328125 0.03125q-1.4375 -4.34375 -1.640625 -4.890625q-0.1875 -0.546875 -5.359375 -0.171875q1.953125 -5.859375 1.828125 -6.640625q-0.109375 -0.796875 -0.515625 -1.859375q-0.390625 -1.078125 -0.859375 -2.921875q-0.453125 -1.84375 2.75 -2.53125zm71.8125 -91.99999q-1.46875 2.1406174 -4.890625 5.4687424q-3.421875 3.3125 -6.515625 6.59375q-3.09375 3.28125 -5.34375 6.9375q-2.25 3.65625 -2.34375 4.21875q3.828125 -0.453125 13.1875 -4.21875q9.359375 -3.765625 15.53125 -6.328125q-0.5625 -4.109375 -4.296875 -8.109375q-3.734375 -3.9999924 -5.328125 -4.5624924z" fill-rule="nonzero"/></g></svg>